<svg width="1440" height="1045" viewBox="0 0 1440 1045" fill="none" xmlns="http://www.w3.org/2000/svg">
<g clip-path="url(#clip0_1212_4513)">
<rect width="1440" height="1045" fill="#FAFAFA"/>
<g style="mix-blend-mode:multiply" filter="url(#filter0_f_1212_4513)">
<circle cx="1367" cy="151" r="236" fill="#70C955"/>
</g>
<path d="M578.5 532.75H490.5C463.438 532.75 441.5 554.688 441.5 581.75V727.75C441.5 754.812 419.562 776.75 392.5 776.75H322.5" stroke="black" stroke-opacity="0.2"/>
<path d="M578.5 532.75H490.5C463.438 532.75 441.5 510.812 441.5 483.75V337.75C441.5 310.688 419.562 288.75 392.5 288.75H322.5" stroke="black" stroke-opacity="0.2"/>
<path d="M441.493 392.75C441.78 392.75 442.019 392.531 442.043 392.245L443.372 376.745C443.457 375.75 443.457 374.75 443.372 373.755L442.043 358.255C442.019 357.969 441.78 357.75 441.493 357.75V357.75C441.212 357.75 440.976 357.961 440.944 358.24L439.227 373.263C439.076 374.583 439.076 375.917 439.227 377.237L440.944 392.26C440.976 392.539 441.212 392.75 441.493 392.75V392.75Z" fill="url(#paint0_linear_1212_4513)"/>
<path d="M392.5 776.757C392.5 776.47 392.281 776.231 391.995 776.207L376.495 774.878C375.5 774.793 374.5 774.793 373.505 774.878L358.005 776.207C357.719 776.231 357.5 776.47 357.5 776.757V776.757C357.5 777.038 357.711 777.274 357.99 777.306L373.013 779.023C374.333 779.174 375.667 779.174 376.987 779.023L392.01 777.306C392.289 777.274 392.5 777.038 392.5 776.757V776.757Z" fill="url(#paint1_linear_1212_4513)"/>
<path d="M578.5 532.75H321.5" stroke="black" stroke-opacity="0.2"/>
<rect x="578.5" y="533.25" width="98" height="1" transform="rotate(180 578.5 533.25)" fill="#BFC5BE"/>
<path d="M410.5 532.757C410.5 532.47 410.281 532.231 409.995 532.207L394.495 530.878C393.5 530.793 392.5 530.793 391.505 530.878L376.005 532.207C375.719 532.231 375.5 532.47 375.5 532.757V532.757C375.5 533.038 375.711 533.274 375.99 533.306L391.013 535.023C392.333 535.174 393.667 535.174 394.987 535.023L410.01 533.306C410.289 533.274 410.5 533.038 410.5 532.757V532.757Z" fill="url(#paint2_linear_1212_4513)"/>
<path d="M842.5 531.75H930.5C957.562 531.75 979.5 553.688 979.5 580.75V726.75C979.5 753.812 1001.44 775.75 1028.5 775.75H1098.5" stroke="black" stroke-opacity="0.2"/>
<path d="M842.5 531.75H930.5C957.562 531.75 979.5 509.812 979.5 482.75V336.75C979.5 309.688 1001.44 287.75 1028.5 287.75H1098.5" stroke="black" stroke-opacity="0.2"/>
<path d="M979.507 391.75C979.22 391.75 978.981 391.531 978.957 391.245L977.628 375.745C977.543 374.75 977.543 373.75 977.628 372.755L978.957 357.255C978.981 356.969 979.22 356.75 979.507 356.75V356.75C979.788 356.75 980.024 356.961 980.056 357.24L981.773 372.263C981.924 373.583 981.924 374.917 981.773 376.237L980.056 391.26C980.024 391.539 979.788 391.75 979.507 391.75V391.75Z" fill="url(#paint3_linear_1212_4513)"/>
<path d="M1028.5 775.757C1028.5 775.47 1028.72 775.231 1029.01 775.207L1044.51 773.878C1045.5 773.793 1046.5 773.793 1047.49 773.878L1062.99 775.207C1063.28 775.231 1063.5 775.47 1063.5 775.757V775.757C1063.5 776.038 1063.29 776.274 1063.01 776.306L1047.99 778.023C1046.67 778.174 1045.33 778.174 1044.01 778.023L1028.99 776.306C1028.71 776.274 1028.5 776.038 1028.5 775.757V775.757Z" fill="url(#paint4_linear_1212_4513)"/>
<path d="M842.5 531.75H1099.5" stroke="black" stroke-opacity="0.2"/>
<rect width="98" height="1" transform="matrix(1 0 0 -1 842.5 532.25)" fill="#BFC5BE"/>
<path d="M1010.5 531.757C1010.5 531.47 1010.72 531.231 1011.01 531.207L1026.51 529.878C1027.5 529.793 1028.5 529.793 1029.49 529.878L1044.99 531.207C1045.28 531.231 1045.5 531.47 1045.5 531.757V531.757C1045.5 532.038 1045.29 532.274 1045.01 532.306L1029.99 534.023C1028.67 534.174 1027.33 534.174 1026.01 534.023L1010.99 532.306C1010.71 532.274 1010.5 532.038 1010.5 531.757V531.757Z" fill="url(#paint5_linear_1212_4513)"/>
<g filter="url(#filter1_dddd_1212_4513)">
<circle cx="712.5" cy="530.75" r="144.5" fill="#E7FFF4"/>
<g clip-path="url(#clip1_1212_4513)">
<path d="M661 522.298V581.523V598.866C661 614.312 679.746 622.045 690.725 611.135C690.725 581.602 690.725 522.198 690.725 492.686L661 522.298Z" fill="#A0DB8E"/>
<path d="M697.129 485.333C697.129 514.845 697.129 574.249 697.129 603.762L726.854 574.169C726.854 544.637 726.854 485.233 726.854 455.72L697.109 485.333H697.129Z" fill="#A0DB8E"/>
<path d="M733.254 450.365C733.254 479.878 733.254 539.282 733.254 568.794L762.979 539.202V479.978V462.634C762.979 447.188 744.213 439.435 733.234 450.365H733.254Z" fill="#A0DB8E"/>
</g>
</g>
<path d="M-42 148V148C-42 199.543 -21.5245 248.975 14.9221 285.422L44.55 315.05C159.95 430.45 159.95 617.55 44.5499 732.95L12.4472 765.053C-22.4148 799.915 -42 847.198 -42 896.5V896.5" stroke="black" stroke-opacity="0.2"/>
<path d="M1481 896.5V896.5C1481 844.957 1460.52 795.525 1424.08 759.078L1394.45 729.45C1279.05 614.05 1279.05 426.95 1394.45 311.55L1426.55 279.447C1461.41 244.585 1481 197.302 1481 148V148" stroke="black" stroke-opacity="0.2"/>
</g>
<defs>
<filter id="filter0_f_1212_4513" x="331" y="-885" width="2072" height="2072" filterUnits="userSpaceOnUse" color-interpolation-filters="sRGB">
<feFlood flood-opacity="0" result="BackgroundImageFix"/>
<feBlend mode="normal" in="SourceGraphic" in2="BackgroundImageFix" result="shape"/>
<feGaussianBlur stdDeviation="400" result="effect1_foregroundBlur_1212_4513"/>
</filter>
<filter id="filter1_dddd_1212_4513" x="517" y="377.25" width="391" height="476" filterUnits="userSpaceOnUse" color-interpolation-filters="sRGB">
<feFlood flood-opacity="0" result="BackgroundImageFix"/>
<feColorMatrix in="SourceAlpha" type="matrix" values="0 0 0 0 0 0 0 0 0 0 0 0 0 0 0 0 0 0 127 0" result="hardAlpha"/>
<feOffset dy="8"/>
<feGaussianBlur stdDeviation="8.5"/>
<feColorMatrix type="matrix" values="0 0 0 0 0 0 0 0 0 0 0 0 0 0 0 0 0 0 0.1 0"/>
<feBlend mode="normal" in2="BackgroundImageFix" result="effect1_dropShadow_1212_4513"/>
<feColorMatrix in="SourceAlpha" type="matrix" values="0 0 0 0 0 0 0 0 0 0 0 0 0 0 0 0 0 0 127 0" result="hardAlpha"/>
<feOffset dy="32"/>
<feGaussianBlur stdDeviation="16"/>
<feColorMatrix type="matrix" values="0 0 0 0 0 0 0 0 0 0 0 0 0 0 0 0 0 0 0.09 0"/>
<feBlend mode="normal" in2="effect1_dropShadow_1212_4513" result="effect2_dropShadow_1212_4513"/>
<feColorMatrix in="SourceAlpha" type="matrix" values="0 0 0 0 0 0 0 0 0 0 0 0 0 0 0 0 0 0 127 0" result="hardAlpha"/>
<feOffset dy="72"/>
<feGaussianBlur stdDeviation="21.5"/>
<feColorMatrix type="matrix" values="0 0 0 0 0 0 0 0 0 0 0 0 0 0 0 0 0 0 0.05 0"/>
<feBlend mode="normal" in2="effect2_dropShadow_1212_4513" result="effect3_dropShadow_1212_4513"/>
<feColorMatrix in="SourceAlpha" type="matrix" values="0 0 0 0 0 0 0 0 0 0 0 0 0 0 0 0 0 0 127 0" result="hardAlpha"/>
<feOffset dy="127"/>
<feGaussianBlur stdDeviation="25.5"/>
<feColorMatrix type="matrix" values="0 0 0 0 0 0 0 0 0 0 0 0 0 0 0 0 0 0 0.01 0"/>
<feBlend mode="normal" in2="effect3_dropShadow_1212_4513" result="effect4_dropShadow_1212_4513"/>
<feBlend mode="normal" in="SourceGraphic" in2="effect4_dropShadow_1212_4513" result="shape"/>
</filter>
<linearGradient id="paint0_linear_1212_4513" x1="441.5" y1="392.75" x2="441.5" y2="357.75" gradientUnits="userSpaceOnUse">
<stop stop-color="#B9CCB4"/>
<stop offset="0.496429" stop-color="#A2DA91"/>
<stop offset="1" stop-color="#BCCBB7"/>
</linearGradient>
<linearGradient id="paint1_linear_1212_4513" x1="392.5" y1="776.75" x2="357.5" y2="776.75" gradientUnits="userSpaceOnUse">
<stop stop-color="#B9CCB4"/>
<stop offset="0.496429" stop-color="#A2DA91"/>
<stop offset="1" stop-color="#BCCBB7"/>
</linearGradient>
<linearGradient id="paint2_linear_1212_4513" x1="410.5" y1="532.75" x2="375.5" y2="532.75" gradientUnits="userSpaceOnUse">
<stop stop-color="#B9CCB4"/>
<stop offset="0.496429" stop-color="#A2DA91"/>
<stop offset="1" stop-color="#BCCBB7"/>
</linearGradient>
<linearGradient id="paint3_linear_1212_4513" x1="979.5" y1="391.75" x2="979.5" y2="356.75" gradientUnits="userSpaceOnUse">
<stop stop-color="#B9CCB4"/>
<stop offset="0.496429" stop-color="#A2DA91"/>
<stop offset="1" stop-color="#BCCBB7"/>
</linearGradient>
<linearGradient id="paint4_linear_1212_4513" x1="1028.5" y1="775.75" x2="1063.5" y2="775.75" gradientUnits="userSpaceOnUse">
<stop stop-color="#B9CCB4"/>
<stop offset="0.496429" stop-color="#A2DA91"/>
<stop offset="1" stop-color="#BCCBB7"/>
</linearGradient>
<linearGradient id="paint5_linear_1212_4513" x1="1010.5" y1="531.75" x2="1045.5" y2="531.75" gradientUnits="userSpaceOnUse">
<stop stop-color="#B9CCB4"/>
<stop offset="0.496429" stop-color="#A2DA91"/>
<stop offset="1" stop-color="#BCCBB7"/>
</linearGradient>
<clipPath id="clip0_1212_4513">
<rect width="1440" height="1045" fill="white"/>
</clipPath>
<clipPath id="clip1_1212_4513">
<rect width="102" height="171" fill="white" transform="translate(661 445.25)"/>
</clipPath>
</defs>
</svg>
